<svg width="48" height="26" xmlns="http://www.w3.org/2000/svg" xmlns:xlink="http://www.w3.org/1999/xlink" xml:space="preserve" overflow="hidden"><g><path d="M13 11.9167C11.6458 11.9167 10.5625 10.8333 10.5625 9.47917 10.5625 8.125 11.6458 7.04167 13 7.04167 14.3542 7.04167 15.4375 8.125 15.4375 9.47917 15.4375 10.8333 14.3542 11.9167 13 11.9167ZM13 3.79167C11.1313 3.79167 9.37083 4.7125 8.31458 6.28333 7.25833 7.82708 7.04167 9.80417 7.71875 11.5646L10.2917 17.2521 12.5125 21.9104C12.5938 22.1 12.7833 22.2083 13 22.2083 13.2167 22.2083 13.4063 22.1 13.4875 21.9104L15.7083 17.2521 18.2812 11.5646C18.9583 9.80417 18.7417 7.82708 17.6854 6.28333 16.6292 4.7125 14.8688 3.79167 13 3.79167Z" transform="matrix(-1.84615 0 0 1 48 0)"/></g></svg>